<?xml version="1.0" encoding="iso-8859-1"?>
<!-- Generator: Adobe Illustrator 19.0.0, SVG Export Plug-In . SVG Version: 6.00 Build 0)  -->
<svg version="1.1" id="Layer_1" xmlns="http://www.w3.org/2000/svg" xmlns:xlink="http://www.w3.org/1999/xlink" x="0px" y="0px"
	 viewBox="0 0 512 512" style="enable-background:new 0 0 512 512;" xml:space="preserve">
<path style="fill:#FFEACF;" d="M256,0C132.521,0,32.062,100.458,32.062,223.938v184.707L256,512l223.938-103.356V223.938
	C479.938,100.458,379.479,0,256,0z"/>
<path style="fill:#FFD6A0;" d="M256,512l223.938-103.356V223.938C479.938,100.458,379.479,0,256,0"/>
<g>
	<circle style="fill:#401409;" cx="155.614" cy="231.66" r="23.166"/>
	<circle style="fill:#401409;" cx="356.386" cy="231.66" r="23.166"/>
	<path style="fill:#401409;" d="M286.888,301.157c0-4.212-1.691-8.026-4.423-10.811C273.929,279.242,256,270.269,256,270.269
		s-17.927,8.973-26.465,20.077c-2.734,2.785-4.423,6.599-4.423,10.811s1.691,8.026,4.423,10.811
		C238.071,323.072,256,332.045,256,332.045s17.927-8.973,26.465-20.077C285.198,309.184,286.888,305.369,286.888,301.157z"/>
</g>
<path style="fill:#FF5023;" d="M256,155.342c29.248-54.032,83.523-92.512,147.275-99.952C363.878,20.92,312.34,0,256,0
	c-56.338,0-107.876,20.92-147.275,55.39C172.477,62.829,226.754,101.309,256,155.342z"/>
<path style="fill:#BF3C1A;" d="M256,0v155.342c29.248-54.032,83.523-92.512,147.275-99.952C363.878,20.92,312.34,0,256,0z"/>
<g>
</g>
<g>
</g>
<g>
</g>
<g>
</g>
<g>
</g>
<g>
</g>
<g>
</g>
<g>
</g>
<g>
</g>
<g>
</g>
<g>
</g>
<g>
</g>
<g>
</g>
<g>
</g>
<g>
</g>
</svg>
