<?xml version="1.0" encoding="iso-8859-1"?>
<!-- Generator: Adobe Illustrator 19.0.0, SVG Export Plug-In . SVG Version: 6.00 Build 0)  -->
<svg version="1.1" id="Layer_1" xmlns="http://www.w3.org/2000/svg" xmlns:xlink="http://www.w3.org/1999/xlink" x="0px" y="0px"
	 viewBox="0 0 512 512" style="enable-background:new 0 0 512 512;" xml:space="preserve">
<path style="fill:#FFEACF;" d="M256,0C140.688,0,46.873,93.814,46.873,209.127v172.491L256,478.137l209.127-96.52V209.127
	C465.127,93.814,371.313,0,256,0z"/>
<path style="fill:#FFD6A0;" d="M256,478.137l209.127-96.52V209.127C465.127,93.814,371.313,0,256,0"/>
<g>
	<circle style="fill:#401409;" cx="162.254" cy="216.338" r="21.634"/>
	<circle style="fill:#401409;" cx="349.746" cy="216.338" r="21.634"/>
</g>
<g>
	<path style="fill:#FF5023;" d="M256,145.068c27.313-50.459,77.999-86.394,137.535-93.341C356.743,19.537,308.613,0,256,0
		c-52.612,0-100.743,19.537-137.535,51.726C178.001,58.674,228.688,94.609,256,145.068z"/>
	<path style="fill:#FF5023;" d="M269.316,321.881L256,311.479l-13.316,10.402c-12.227,9.549-73.219,59.424-73.219,103.584
		C169.465,473.18,208.284,512,256,512s86.535-38.82,86.535-86.535C342.535,381.304,281.544,331.43,269.316,321.881z"/>
</g>
<g>
	<path style="fill:#BF3C1A;" d="M256,0v145.068c27.313-50.459,77.999-86.394,137.535-93.341C356.743,19.537,308.613,0,256,0z"/>
	<path style="fill:#BF3C1A;" d="M269.316,321.881L256,311.479V512c47.716,0,86.535-38.82,86.535-86.535
		C342.535,381.304,281.544,331.43,269.316,321.881z"/>
</g>
<path style="fill:#401409;" d="M299.268,295.662c0-5.902-2.37-11.244-6.197-15.144C281.113,264.964,256,252.394,256,252.394
	s-25.113,12.569-37.07,28.124c-3.828,3.9-6.197,9.242-6.197,15.144s2.37,11.244,6.197,15.144C230.887,326.36,256,338.93,256,338.93
	s25.113-12.569,37.07-28.124C296.898,306.906,299.268,301.564,299.268,295.662z"/>
<g>
</g>
<g>
</g>
<g>
</g>
<g>
</g>
<g>
</g>
<g>
</g>
<g>
</g>
<g>
</g>
<g>
</g>
<g>
</g>
<g>
</g>
<g>
</g>
<g>
</g>
<g>
</g>
<g>
</g>
</svg>
