<?xml version="1.0" encoding="iso-8859-1"?>
<!-- Generator: Adobe Illustrator 19.0.0, SVG Export Plug-In . SVG Version: 6.00 Build 0)  -->
<svg version="1.1" id="Layer_1" xmlns="http://www.w3.org/2000/svg" xmlns:xlink="http://www.w3.org/1999/xlink" x="0px" y="0px"
	 viewBox="0 0 512 512" style="enable-background:new 0 0 512 512;" xml:space="preserve">
<g>
	<g>
		<path d="M256.001,174.871c-14.679,0-29.108,1.292-43.082,3.776c17.743,12.758,32.49,29.335,43.082,48.456
			c10.593-19.121,25.339-35.698,43.082-48.456C285.11,176.163,270.68,174.871,256.001,174.871z"/>
	</g>
</g>
<g>
	<g>
		<path d="M503.68,250.145c-4.67-6.255-47.012-61.115-95.063-61.225h-0.153c-7.28,0-14.305,1.103-20.934,3.129l10.739-64.43h78.606
			l29.145-72.861l-34.15-13.662l-19.897,49.741h-47.576l4.605-27.627l-36.28-6.047l-9.699,58.194h-35.881l-19.061-28.591
			l-30.603,20.402l29.98,44.97h49.433l-6.97,41.816c-0.197-0.087-0.392-0.179-0.591-0.266
			c-30.411,10.297-54.619,33.461-66.643,62.661h-53.38c-12.024-29.2-36.231-52.363-66.642-62.661
			c-0.199,0.086-0.394,0.179-0.591,0.266l-6.97-41.816h49.433l29.98-44.97l-30.603-20.402l-19.061,28.591h-35.881l-9.699-58.194
			l-36.277,6.047l4.605,27.627H60.027L40.13,41.096L5.982,54.758l29.144,72.861h78.606l10.739,64.431
			c-6.629-2.025-13.655-3.13-20.934-3.13h-0.158c-48.047,0.112-90.388,54.971-95.058,61.225L0,261.29l8.457,11.04
			c3.44,4.491,26.921,34.206,57.524,50.327c0.288,50.347,33.349,94.173,95.675,126.773c3.757,1.967,7.508,3.824,11.232,5.598
			c-5.659-11.924-8.838-25.244-8.838-39.295c0-50.702,41.25-91.952,91.952-91.952c50.702,0,91.952,41.25,91.952,91.952
			c0,14.051-3.179,27.371-8.838,39.295c3.723-1.774,7.475-3.633,11.232-5.598c62.325-32.601,95.386-76.427,95.674-126.773
			c30.604-16.119,54.085-45.836,57.525-50.327L512,261.29L503.68,250.145z M151.789,342.172c-10.156,0-18.39-8.233-18.39-18.39
			s8.234-18.39,18.39-18.39s18.39,8.233,18.39,18.39C170.179,333.94,161.945,342.172,151.789,342.172z M360.212,342.172
			c-10.156,0-18.39-8.233-18.39-18.39s8.234-18.39,18.39-18.39c10.156,0,18.39,8.233,18.39,18.39
			C378.603,333.94,370.369,342.172,360.212,342.172z"/>
	</g>
</g>
<g>
	<g>
		<path d="M256.001,360.562c-30.422,0-55.171,24.75-55.171,55.171c0,30.422,24.748,55.171,55.171,55.171
			s55.171-24.748,55.171-55.171C311.172,385.312,286.423,360.562,256.001,360.562z M256.001,434.123c0,0-24.52-12.26-24.52-24.52
			c0-6.771,5.488-12.26,12.26-12.26h12.26h12.26c6.771,0,12.26,5.489,12.26,12.26C280.521,421.863,256.001,434.123,256.001,434.123z
			"/>
	</g>
</g>
<g>
</g>
<g>
</g>
<g>
</g>
<g>
</g>
<g>
</g>
<g>
</g>
<g>
</g>
<g>
</g>
<g>
</g>
<g>
</g>
<g>
</g>
<g>
</g>
<g>
</g>
<g>
</g>
<g>
</g>
</svg>
