<?xml version="1.0" encoding="iso-8859-1"?>
<!-- Generator: Adobe Illustrator 19.0.0, SVG Export Plug-In . SVG Version: 6.00 Build 0)  -->
<svg version="1.1" id="Layer_1" xmlns="http://www.w3.org/2000/svg" xmlns:xlink="http://www.w3.org/1999/xlink" x="0px" y="0px"
	 viewBox="0 0 512 512" style="enable-background:new 0 0 512 512;" xml:space="preserve">
<path style="fill:#804C09;" d="M200.989,136.291l-67.879-63.704c-12.992-12.193-29.957-18.91-47.768-18.91
	c-19.214,0-37.773,8.034-50.919,22.039C17.832,93.4,11.635,117.959,17.847,141.414c2.152,8.13,34.96,128.385,36.355,133.5
	l1.731,6.344l4.796,4.499c4.898,4.597,13.667,10.077,27.628,10.077c16.781,0,39.002-8.071,66.046-23.988
	c20.201-11.889,40.181-26.705,49.718-36.867C230.465,206.91,229.061,162.639,200.989,136.291z"/>
<path style="fill:#FFD6A0;" d="M68.363,107.573c4.447-4.738,10.477-7.346,16.98-7.346c5.933,0,11.585,2.237,15.917,6.304
	l67.879,63.702c9.357,8.783,9.826,23.543,1.046,32.898c-12.746,13.58-53.901,39.556-75.013,45.103
	c-9.045-33.161-30.656-112.415-32.327-118.73C60.767,121.665,62.83,113.467,68.363,107.573z"/>
<path style="fill:#402604;" d="M477.577,75.72c-13.146-14.007-31.705-22.041-50.919-22.041c-17.811,0-34.777,6.715-47.768,18.91
	l-67.88,63.705c-28.068,26.345-29.474,70.617-3.131,98.689c9.537,10.161,29.518,24.976,49.718,36.864
	c27.046,15.917,49.267,23.988,66.045,23.99c0.003,0,0.002,0,0.003,0c13.959,0,22.73-5.48,27.626-10.077l4.794-4.499l1.731-6.344
	c1.395-5.115,34.203-125.37,36.355-133.499C500.365,117.959,494.168,93.4,477.577,75.72z"/>
<path style="fill:#FFC170;" d="M341.817,203.129c-8.782-9.357-8.313-24.117,1.043-32.898l67.879-63.704
	c4.332-4.065,9.984-6.304,15.917-6.304c6.502,0,12.533,2.61,16.98,7.348c5.533,5.894,7.596,14.091,5.52,21.929
	c-1.671,6.313-23.282,85.563-32.327,118.728C395.717,242.683,354.562,216.708,341.817,203.129z"/>
<path style="fill:#FFEACF;" d="M433.909,165.398C386.077,131.916,322.895,113.476,256,113.476s-130.077,18.44-177.909,51.921
	C27.733,200.65,0,248.331,0,299.658c0,151.481,241.169,201.456,251.435,203.509L256,504.08l4.565-0.912
	C270.831,501.115,512,451.139,512,299.658C512,248.331,484.267,200.65,433.909,165.398z"/>
<path style="fill:#FFD6A0;" d="M433.909,165.398C386.077,131.916,322.895,113.476,256,113.476v390.603l4.565-0.912
	C270.831,501.115,512,451.139,512,299.658C512,248.331,484.267,200.65,433.909,165.398z"/>
<g>
	<circle style="fill:#401409;" cx="155.152" cy="301.925" r="23.273"/>
	<circle style="fill:#401409;" cx="356.848" cy="301.925" r="23.273"/>
	<path style="fill:#401409;" d="M271.515,356.225H256h-15.515c-8.569,0-15.515,6.946-15.515,15.515
		c0,15.515,31.03,31.03,31.03,31.03s31.03-15.515,31.03-31.03C287.03,363.171,280.084,356.225,271.515,356.225z"/>
</g>
<polygon style="fill:#BF720D;" points="292.119,7.92 256,44.04 219.881,7.92 113.996,144.452 256,262.398 398.004,144.452 "/>
<polygon style="fill:#804C09;" points="292.119,7.92 256,44.04 256,262.398 398.004,144.452 "/>
<g>
</g>
<g>
</g>
<g>
</g>
<g>
</g>
<g>
</g>
<g>
</g>
<g>
</g>
<g>
</g>
<g>
</g>
<g>
</g>
<g>
</g>
<g>
</g>
<g>
</g>
<g>
</g>
<g>
</g>
</svg>
