<?xml version="1.0" encoding="iso-8859-1"?>
<!-- Generator: Adobe Illustrator 19.0.0, SVG Export Plug-In . SVG Version: 6.00 Build 0)  -->
<svg version="1.1" id="Layer_1" xmlns="http://www.w3.org/2000/svg" xmlns:xlink="http://www.w3.org/1999/xlink" x="0px" y="0px"
	 viewBox="0 0 512 512" style="enable-background:new 0 0 512 512;" xml:space="preserve">
<path style="fill:#FFFFFF;" d="M100.848,73.152v148.021c31.441-9.908,54.303-39.339,54.303-74.01S132.29,83.06,100.848,73.152z"/>
<path style="fill:#BF3C1A;" d="M77.576,23.042H54.303v248.242h23.273c68.44,0,124.121-55.681,124.121-124.121
	S146.016,23.042,77.576,23.042z"/>
<path style="fill:#401409;" d="M100.848,221.174V73.152c31.441,9.908,54.303,39.339,54.303,74.01S132.29,211.266,100.848,221.174z"
	/>
<path style="fill:#FFFFFF;" d="M356.848,147.164c0,34.672,22.86,64.102,54.303,74.01V73.152
	C379.708,83.06,356.848,112.492,356.848,147.164z"/>
<path style="fill:#802812;" d="M434.424,23.042c-68.44,0-124.121,55.681-124.121,124.121s55.681,124.121,124.121,124.121h23.273
	V23.042L434.424,23.042L434.424,23.042z"/>
<path style="fill:#401409;" d="M411.151,221.174c-31.443-9.908-54.303-39.339-54.303-74.01s22.86-64.102,54.303-74.01V221.174z"/>
<path style="fill:#FFD6A0;" d="M458.82,170.436H53.18C18.676,202.784,0,242.43,0,284.536c0,151.481,241.169,201.456,251.435,203.509
	l4.565,0.912l4.563-0.912C270.831,485.991,512,436.015,512,284.536C512,242.43,493.324,202.784,458.82,170.436z"/>
<path style="fill:#FFC170;" d="M458.82,170.436H256v318.521l4.563-0.912C270.831,485.991,512,436.015,512,284.536
	C512,242.43,493.324,202.784,458.82,170.436z"/>
<g>
	<circle style="fill:#401409;" cx="124.121" cy="286.797" r="23.273"/>
	<circle style="fill:#401409;" cx="387.879" cy="286.797" r="23.273"/>
	<path style="fill:#401409;" d="M271.515,341.103H256h-15.515c-8.569,0-15.515,6.946-15.515,15.515
		c0,15.515,31.03,31.03,31.03,31.03s31.03-15.515,31.03-31.03C287.03,348.048,280.084,341.103,271.515,341.103z"/>
</g>
<path style="fill:#FF5023;" d="M433.909,150.274c-9.782-6.847-20.215-13.054-31.182-18.614
	C360.069,110.034,309.215,98.354,256,98.354c-53.214,0-104.071,11.68-146.727,33.308c-10.966,5.559-21.4,11.767-31.182,18.614
	C27.733,185.526,0,233.207,0,284.536c0,0.509,0.014,1.012,0.019,1.519c0.403-59.541,48.952-107.861,108.587-107.861
	c59.885,0,108.606,48.721,108.606,108.606h31.03H256h7.758h31.03c0-59.885,48.721-108.606,108.606-108.606
	c59.634,0,108.184,48.32,108.587,107.861c0.005-0.506,0.019-1.008,0.019-1.519C512,233.207,484.267,185.526,433.909,150.274z"/>
<path style="fill:#BF3C1A;" d="M433.909,150.274c-9.782-6.847-20.215-13.054-31.182-18.614
	C360.069,110.034,309.215,98.354,256,98.354v139.992V286.8h7.758h31.03c0-59.885,48.721-108.606,108.606-108.606
	c59.634,0,108.184,48.32,108.587,107.861c0.005-0.506,0.019-1.008,0.019-1.519C512,233.207,484.267,185.526,433.909,150.274z"/>
<g>
</g>
<g>
</g>
<g>
</g>
<g>
</g>
<g>
</g>
<g>
</g>
<g>
</g>
<g>
</g>
<g>
</g>
<g>
</g>
<g>
</g>
<g>
</g>
<g>
</g>
<g>
</g>
<g>
</g>
</svg>
